<?xml version="1.0" standalone="no"?>
<!DOCTYPE svg PUBLIC "-//W3C//DTD SVG 20010904//EN"
 "http://www.w3.org/TR/2001/REC-SVG-20010904/DTD/svg10.dtd">
<svg version="1.0" xmlns="http://www.w3.org/2000/svg"
 width="920.000000pt" height="920.000000pt" viewBox="0 0 920.000000 920.000000"
 preserveAspectRatio="xMidYMid meet">

<g transform="translate(0.000000,920.000000) scale(0.100000,-0.100000)"
fill="#000000" stroke="none">
<path d="M4505 8719 c-73 -15 -184 -72 -227 -116 l-38 -38 67 -77 67 -77 39
36 c52 46 100 66 167 67 67 1 119 -26 133 -68 15 -45 -12 -87 -95 -149 -88
-66 -112 -91 -133 -139 -26 -63 -15 -161 23 -207 l17 -21 92 26 c90 26 92 27
78 48 -20 28 -19 75 3 108 10 15 51 53 93 86 133 105 169 164 169 275 0 56
-42 139 -90 178 -75 61 -245 92 -365 68z"/>
<path d="M4542 7820 c-122 -75 -76 -250 65 -250 50 0 82 18 110 59 45 66 24
150 -47 190 -47 26 -86 27 -128 1z"/>
<path d="M4514 7006 c-145 -33 -257 -98 -357 -206 -207 -223 -235 -572 -67
-824 88 -130 204 -219 355 -273 72 -25 93 -28 210 -27 119 0 137 2 216 30 205
73 353 223 427 433 23 67 26 91 26 206 0 120 -2 137 -30 216 -97 272 -332 446
-614 455 -66 2 -128 -2 -166 -10z"/>
<path d="M2155 5342 c-74 -36 -138 -104 -161 -174 -24 -74 -16 -191 18 -249
14 -24 179 -204 367 -400 245 -256 355 -363 390 -382 106 -58 205 -53 331 15
41 23 229 126 417 229 l343 187 2 -1911 3 -1912 21 -51 c30 -74 66 -117 126
-150 45 -25 64 -29 128 -29 64 0 83 4 128 29 60 33 96 76 126 150 21 51 21 56
24 1244 l2 1192 180 0 180 0 2 -1192 c3 -1188 3 -1193 24 -1244 30 -74 66
-117 126 -150 45 -25 64 -29 128 -29 64 0 83 4 128 29 60 33 96 76 126 150
l21 51 3 1922 2 1922 228 -161 c558 -396 576 -409 631 -425 68 -19 144 -12
216 22 43 21 114 88 396 380 397 409 409 426 409 553 0 60 -5 88 -24 128 -51
111 -159 179 -281 178 -124 0 -142 -12 -425 -301 -137 -140 -254 -252 -260
-248 -5 3 -189 132 -407 287 -219 154 -423 293 -453 307 l-55 26 -634 3 c-426
2 -651 -1 -685 -8 -48 -10 -134 -55 -825 -434 l-194 -106 -166 172 c-91 95
-204 213 -251 261 -108 113 -157 139 -265 144 -72 4 -86 1 -140 -25z"/>
</g>
</svg>
